<svg width="63" height="50" viewBox="0 0 63 50" fill="none" xmlns="http://www.w3.org/2000/svg">
<path d="M40.119 21.7387C42.5534 23.245 42.5534 26.755 40.119 28.2613L5.94668 49.4057C3.13039 51.1483 -0.452917 48.8154 0.0473804 45.565L3.12354 25.5794C3.18265 25.1953 3.18265 24.8047 3.12354 24.4206L0.0473822 4.435C-0.452915 1.18459 3.13039 -1.14829 5.94669 0.59431L40.119 21.7387Z" fill="url(#paint0_linear_351_1697)"/>
<g filter="url(#filter0_bi_351_1697)">
<path d="M60.6737 21.7387C63.1081 23.245 63.1081 26.755 60.6737 28.2613L26.5014 49.4057C23.6851 51.1483 20.1018 48.8154 20.6021 45.565L23.6782 25.5794C23.7373 25.1953 23.7373 24.8047 23.6782 24.4206L20.6021 4.435C20.1018 1.18459 23.6851 -1.14829 26.5014 0.59431L60.6737 21.7387Z" fill="#BCE4F1" fill-opacity="0.5"/>
</g>
<defs>
<filter id="filter0_bi_351_1697" x="16.5547" y="-4" width="49.9448" height="58" filterUnits="userSpaceOnUse" color-interpolation-filters="sRGB">
<feFlood flood-opacity="0" result="BackgroundImageFix"/>
<feGaussianBlur in="BackgroundImageFix" stdDeviation="2"/>
<feComposite in2="SourceAlpha" operator="in" result="effect1_backgroundBlur_351_1697"/>
<feBlend mode="normal" in="SourceGraphic" in2="effect1_backgroundBlur_351_1697" result="shape"/>
<feColorMatrix in="SourceAlpha" type="matrix" values="0 0 0 0 0 0 0 0 0 0 0 0 0 0 0 0 0 0 127 0" result="hardAlpha"/>
<feOffset dx="0.2" dy="0.1"/>
<feGaussianBlur stdDeviation="0.5"/>
<feComposite in2="hardAlpha" operator="arithmetic" k2="-1" k3="1"/>
<feColorMatrix type="matrix" values="0 0 0 0 1 0 0 0 0 1 0 0 0 0 1 0 0 0 0.6 0"/>
<feBlend mode="normal" in2="shape" result="effect2_innerShadow_351_1697"/>
</filter>
<linearGradient id="paint0_linear_351_1697" x1="29.1482" y1="3.38983" x2="34.1802" y2="47.7136" gradientUnits="userSpaceOnUse">
<stop stop-color="#2E4DFE"/>
<stop offset="1" stop-color="#0085FF"/>
</linearGradient>
</defs>
</svg>
