<svg width="49" height="56" viewBox="0 0 49 56" fill="none" xmlns="http://www.w3.org/2000/svg">
<path d="M38.2563 16.7975C41.6745 17.9238 44.3766 20.1656 46.353 23.4905C48.2721 26.7287 49.1315 30.3243 48.6923 34.2122C47.9762 40.5695 44.9208 44.9882 39.7458 47.5224C38.1512 48.3022 36.4708 48.7679 34.7139 48.7137C34.3893 48.7029 34.4084 48.9087 34.4084 49.1469C34.4084 50.479 34.3989 51.8111 34.418 53.1432C34.4275 53.9122 34.3129 54.5836 33.6637 54.9843C32.9953 55.3959 32.4224 55.1035 31.8495 54.6703C29.348 52.7642 26.8368 50.8797 24.3257 48.9736C24.0774 48.7787 23.8292 48.7029 23.5332 48.7029C21.0221 48.6704 18.5109 48.8545 16.0094 48.6162C11.9133 48.2155 8.55235 46.147 5.98393 42.5081C3.57783 39.0966 2.56574 35.1653 2.96675 30.8116C3.32003 26.9236 4.77133 23.5988 7.23472 20.8804C9.68857 18.1512 12.6485 16.6025 16.0857 16.256C16.1621 16.2452 16.2385 16.2127 16.3149 16.1802C22.6643 16.1802 29.0233 16.1802 35.3728 16.1802C36.3276 16.3751 37.3015 16.4834 38.2563 16.7975Z" fill="url(#paint0_linear_351_2244)"/>
<g filter="url(#filter0_bi_351_2244)">
<path d="M13.4416 0C19.7911 0 26.1501 0 32.4995 0C32.5759 0.0216601 32.6523 0.0649804 32.7287 0.0758105C36.166 0.422373 39.1163 1.97107 41.5797 4.70025C44.0431 7.42943 45.4944 10.7434 45.8477 14.6314C46.2391 18.9851 45.2366 22.9164 42.8209 26.3387C40.2525 29.9668 36.9012 32.0462 32.7955 32.4469C30.2939 32.696 27.7828 32.5119 25.2717 32.5335C24.9757 32.5335 24.7274 32.6093 24.4792 32.8043C21.9776 34.7104 19.4569 36.5948 16.9553 38.5009C16.3824 38.9341 15.8096 39.2373 15.1412 38.815C14.4919 38.4142 14.3774 37.732 14.3869 36.9739C14.406 35.6418 14.3869 34.3097 14.3965 32.9776C14.3965 32.7285 14.4155 32.5335 14.0909 32.5444C12.3341 32.5877 10.6441 32.1328 9.0591 31.353C3.88407 28.808 0.819154 24.3893 0.112599 18.0212C-0.32661 14.1441 0.532713 10.5377 2.45187 7.29947C4.42831 3.97463 7.13995 1.73281 10.5486 0.606484C11.4938 0.303242 12.4773 0.194941 13.4416 0Z" fill="#BCE4F1" fill-opacity="0.5"/>
</g>
<ellipse cx="11.9049" cy="16.153" rx="3.57143" ry="4.0383" fill="white"/>
<ellipse cx="22.6193" cy="16.153" rx="3.57143" ry="4.0383" fill="white"/>
<ellipse cx="33.3331" cy="16.153" rx="3.57143" ry="4.0383" fill="white"/>
<defs>
<filter id="filter0_bi_351_2244" x="-4" y="-4" width="53.9302" height="47.0176" filterUnits="userSpaceOnUse" color-interpolation-filters="sRGB">
<feFlood flood-opacity="0" result="BackgroundImageFix"/>
<feGaussianBlur in="BackgroundImageFix" stdDeviation="2"/>
<feComposite in2="SourceAlpha" operator="in" result="effect1_backgroundBlur_351_2244"/>
<feBlend mode="normal" in="SourceGraphic" in2="effect1_backgroundBlur_351_2244" result="shape"/>
<feColorMatrix in="SourceAlpha" type="matrix" values="0 0 0 0 0 0 0 0 0 0 0 0 0 0 0 0 0 0 127 0" result="hardAlpha"/>
<feOffset dx="0.2" dy="0.1"/>
<feGaussianBlur stdDeviation="0.5"/>
<feComposite in2="hardAlpha" operator="arithmetic" k2="-1" k3="1"/>
<feColorMatrix type="matrix" values="0 0 0 0 1 0 0 0 0 1 0 0 0 0 1 0 0 0 0.6 0"/>
<feBlend mode="normal" in2="shape" result="effect2_innerShadow_351_2244"/>
</filter>
<linearGradient id="paint0_linear_351_2244" x1="5.99481" y1="28.0791" x2="46.7175" y2="23.5124" gradientUnits="userSpaceOnUse">
<stop stop-color="#2E4DFE"/>
<stop offset="1" stop-color="#0085FF"/>
</linearGradient>
</defs>
</svg>
